HIERARCHY
ROOT Hips
{
	OFFSET 0.000000 97.167313 0.000000
	CHANNELS 6 Xposition Yposition Zposition Xrotation Yrotation Zrotation
	JOINT Spine
	{
		OFFSET 0.000000 13.784798 0.064400
		CHANNELS 3 Xrotation Yrotation Zrotation
		JOINT Spine1
		{
			OFFSET 0.000000 12.037903 0.404700
			CHANNELS 3 Xrotation Yrotation Zrotation
			JOINT Spine2
			{
				OFFSET 0.000000 17.795601 0.420200
				CHANNELS 3 Xrotation Yrotation Zrotation
				JOINT Neck
				{
					OFFSET 0.000000 39.131302 11.954600
					CHANNELS 3 Xrotation Yrotation Zrotation
					JOINT Head
					{
						OFFSET 0.000000 14.456192 15.627699
						CHANNELS 3 Xrotation Yrotation Zrotation
						JOINT HeadTop_End
						{
							OFFSET 0.000000 15.703506 7.603401
							CHANNELS 3 Xrotation Yrotation Zrotation
							End Site
							{
								OFFSET 0.000000 17.447403 0.000000
							}
						}
					}
				}
				JOINT LeftShoulder
				{
					OFFSET 17.399500 24.608795 1.168800
					CHANNELS 3 Xrotation Yrotation Zrotation
					JOINT LeftArm
					{
						OFFSET 18.980635 5.765305 1.818600
						CHANNELS 3 Xrotation Yrotation Zrotation
						JOINT LeftForeArm
						{
							OFFSET 49.290169 0.000000 0.000000
							CHANNELS 3 Xrotation Yrotation Zrotation
							JOINT LeftHand
							{
								OFFSET 31.562012 0.000000 0.000000
								CHANNELS 3 Xrotation Yrotation Zrotation
								JOINT LeftHandThumb1
								{
									OFFSET 6.133995 -4.388519 7.076070
									CHANNELS 3 Xrotation Yrotation Zrotation
									JOINT LeftHandThumb2
									{
										OFFSET 6.037666 -3.485840 3.485847
										CHANNELS 3 Xrotation Yrotation Zrotation
										JOINT LeftHandThumb3
										{
											OFFSET 6.496506 -3.750763 3.750761
											CHANNELS 3 Xrotation Yrotation Zrotation
											JOINT LeftHandThumb4
											{
												OFFSET 5.616882 -3.242905 3.242910
												CHANNELS 3 Xrotation Yrotation Zrotation
												End Site
												{
													OFFSET -1.254608 7.132141 0.375429
												}
											}
										}
									}
								}
								JOINT LeftHandPinky1
								{
									OFFSET 18.920792 -0.453171 -11.426712
									CHANNELS 3 Xrotation Yrotation Zrotation
									JOINT LeftHandPinky2
									{
										OFFSET 4.919586 0.000000 0.000000
										CHANNELS 3 Xrotation Yrotation Zrotation
										JOINT LeftHandPinky3
										{
											OFFSET 5.233047 0.000000 0.000000
											CHANNELS 3 Xrotation Yrotation Zrotation
											JOINT LeftHandPinky4
											{
												OFFSET 5.571716 0.000000 0.000000
												CHANNELS 3 Xrotation Yrotation Zrotation
												End Site
												{
													OFFSET -3.459808 4.342407 -0.466164
												}
											}
										}
									}
								}
								JOINT LeftHandRing1
								{
									OFFSET 22.726120 -0.094986 -6.500475
									CHANNELS 3 Xrotation Yrotation Zrotation
									JOINT LeftHandRing2
									{
										OFFSET 6.408615 0.000000 0.000000
										CHANNELS 3 Xrotation Yrotation Zrotation
										JOINT LeftHandRing3
										{
											OFFSET 6.150223 0.000000 0.000000
											CHANNELS 3 Xrotation Yrotation Zrotation
											JOINT LeftHandRing4
											{
												OFFSET 6.145386 0.000000 0.000000
												CHANNELS 3 Xrotation Yrotation Zrotation
												End Site
												{
													OFFSET -3.671402 4.923981 -0.202372
												}
											}
										}
									}
								}
								JOINT LeftHandMiddle1
								{
									OFFSET 23.373947 0.000000 0.000001
									CHANNELS 3 Xrotation Yrotation Zrotation
									JOINT LeftHandMiddle2
									{
										OFFSET 6.996567 0.000000 0.000000
										CHANNELS 3 Xrotation Yrotation Zrotation
										JOINT LeftHandMiddle3
										{
											OFFSET 7.015945 0.000000 0.000000
											CHANNELS 3 Xrotation Yrotation Zrotation
											JOINT LeftHandMiddle4
											{
												OFFSET 7.721573 0.000000 0.000000
												CHANNELS 3 Xrotation Yrotation Zrotation
												End Site
												{
													OFFSET -4.651108 6.158463 0.251582
												}
											}
										}
									}
								}
								JOINT LeftHandIndex1
								{
									OFFSET 21.310577 -0.490082 6.209344
									CHANNELS 3 Xrotation Yrotation Zrotation
									JOINT LeftHandIndex2
									{
										OFFSET 7.536453 0.000000 0.000000
										CHANNELS 3 Xrotation Yrotation Zrotation
										JOINT LeftHandIndex3
										{
											OFFSET 7.512344 0.000000 0.000000
											CHANNELS 3 Xrotation Yrotation Zrotation
											JOINT LeftHandIndex4
											{
												OFFSET 10.212402 0.000000 0.000001
												CHANNELS 3 Xrotation Yrotation Zrotation
												End Site
												{
													OFFSET -5.180801 8.690506 1.388433
												}
											}
										}
									}
								}
							}
						}
					}
				}
				JOINT RightShoulder
				{
					OFFSET -17.399500 24.608795 1.168800
					CHANNELS 3 Xrotation Yrotation Zrotation
					JOINT RightArm
					{
						OFFSET -18.980635 5.765305 1.818600
						CHANNELS 3 Xrotation Yrotation Zrotation
						JOINT RightForeArm
						{
							OFFSET -49.290169 0.000000 0.000000
							CHANNELS 3 Xrotation Yrotation Zrotation
							JOINT RightHand
							{
								OFFSET -31.562012 0.000000 0.000000
								CHANNELS 3 Xrotation Yrotation Zrotation
								JOINT RightHandThumb1
								{
									OFFSET -6.133995 -4.388519 7.076070
									CHANNELS 3 Xrotation Yrotation Zrotation
									JOINT RightHandThumb2
									{
										OFFSET -6.037666 -3.485840 3.485847
										CHANNELS 3 Xrotation Yrotation Zrotation
										JOINT RightHandThumb3
										{
											OFFSET -6.496506 -3.750763 3.750761
											CHANNELS 3 Xrotation Yrotation Zrotation
											JOINT RightHandThumb4
											{
												OFFSET -5.616882 -3.242905 3.242910
												CHANNELS 3 Xrotation Yrotation Zrotation
												End Site
												{
													OFFSET 1.254608 7.132141 0.375429
												}
											}
										}
									}
								}
								JOINT RightHandIndex1
								{
									OFFSET -21.310577 -0.490082 6.209344
									CHANNELS 3 Xrotation Yrotation Zrotation
									JOINT RightHandIndex2
									{
										OFFSET -7.536453 0.000000 0.000000
										CHANNELS 3 Xrotation Yrotation Zrotation
										JOINT RightHandIndex3
										{
											OFFSET -7.512344 0.000000 0.000000
											CHANNELS 3 Xrotation Yrotation Zrotation
											JOINT RightHandIndex4
											{
												OFFSET -10.212402 0.000000 0.000001
												CHANNELS 3 Xrotation Yrotation Zrotation
												End Site
												{
													OFFSET 5.180801 8.690506 1.388433
												}
											}
										}
									}
								}
								JOINT RightHandMiddle1
								{
									OFFSET -23.373947 0.000000 0.000001
									CHANNELS 3 Xrotation Yrotation Zrotation
									JOINT RightHandMiddle2
									{
										OFFSET -6.996567 0.000000 0.000000
										CHANNELS 3 Xrotation Yrotation Zrotation
										JOINT RightHandMiddle3
										{
											OFFSET -7.015945 0.000000 0.000000
											CHANNELS 3 Xrotation Yrotation Zrotation
											JOINT RightHandMiddle4
											{
												OFFSET -7.721573 0.000000 0.000000
												CHANNELS 3 Xrotation Yrotation Zrotation
												End Site
												{
													OFFSET 4.651108 6.158463 0.251582
												}
											}
										}
									}
								}
								JOINT RightHandRing1
								{
									OFFSET -22.726120 -0.094986 -6.500475
									CHANNELS 3 Xrotation Yrotation Zrotation
									JOINT RightHandRing2
									{
										OFFSET -6.408615 0.000000 0.000000
										CHANNELS 3 Xrotation Yrotation Zrotation
										JOINT RightHandRing3
										{
											OFFSET -6.150223 0.000000 0.000000
											CHANNELS 3 Xrotation Yrotation Zrotation
											JOINT RightHandRing4
											{
												OFFSET -6.145386 0.000000 0.000000
												CHANNELS 3 Xrotation Yrotation Zrotation
												End Site
												{
													OFFSET 3.671402 4.923981 -0.202372
												}
											}
										}
									}
								}
								JOINT RightHandPinky1
								{
									OFFSET -18.920792 -0.453171 -11.426712
									CHANNELS 3 Xrotation Yrotation Zrotation
									JOINT RightHandPinky2
									{
										OFFSET -4.919586 0.000000 0.000000
										CHANNELS 3 Xrotation Yrotation Zrotation
										JOINT RightHandPinky3
										{
											OFFSET -5.233047 0.000000 0.000000
											CHANNELS 3 Xrotation Yrotation Zrotation
											JOINT RightHandPinky4
											{
												OFFSET -5.571716 0.000000 0.000000
												CHANNELS 3 Xrotation Yrotation Zrotation
												End Site
												{
													OFFSET 3.459808 4.342407 -0.466164
												}
											}
										}
									}
								}
							}
						}
					}
				}
			}
		}
	}
	JOINT LeftUpLeg
	{
		OFFSET 19.899099 -7.885101 -3.429500
		CHANNELS 3 Xrotation Yrotation Zrotation
		JOINT LeftLeg
		{
			OFFSET 1.745560 -36.997807 10.304700
			CHANNELS 3 Xrotation Yrotation Zrotation
			JOINT LeftFoot
			{
				OFFSET -1.745558 -29.803308 -13.615400
				CHANNELS 3 Xrotation Yrotation Zrotation
				JOINT LeftToeBase
				{
					OFFSET 1.181900 -18.539904 15.226099
					CHANNELS 3 Xrotation Yrotation Zrotation
					JOINT LeftToe_End
					{
						OFFSET -0.863701 1.402801 16.534700
						CHANNELS 3 Xrotation Yrotation Zrotation
						End Site
						{
							OFFSET 0.000000 16.616566 0.000000
						}
					}
				}
			}
		}
	}
	JOINT RightUpLeg
	{
		OFFSET -19.899099 -7.885101 -3.429500
		CHANNELS 3 Xrotation Yrotation Zrotation
		JOINT RightLeg
		{
			OFFSET -1.745560 -36.997807 10.304700
			CHANNELS 3 Xrotation Yrotation Zrotation
			JOINT RightFoot
			{
				OFFSET 1.745558 -29.803308 -13.615400
				CHANNELS 3 Xrotation Yrotation Zrotation
				JOINT RightToeBase
				{
					OFFSET -1.181900 -18.539904 15.226099
					CHANNELS 3 Xrotation Yrotation Zrotation
					JOINT RightToe_End
					{
						OFFSET 0.863701 1.402801 16.534700
						CHANNELS 3 Xrotation Yrotation Zrotation
						End Site
						{
							OFFSET 0.000000 16.616566 0.000000
						}
					}
				}
			}
		}
	}
}
MOTION
Frames: 4
Frame Time: 0.033333
-3.247580 85.339188 1.470911 -10.820057 -54.585823 -6.682708 5.270899 0.477091 0.305423 4.893950 1.120457 0.299613 8.444752 1.036557 0.033103 2.537497 5.573051 -0.185480 2.372821 37.187163 -7.339513 -0.000001 0.000000 0.000000 9.150549 -24.592613 -2.246853 -26.053389 8.216525 -60.619240 -91.270343 13.113816 -86.116118 -27.757885 -7.625371 -6.300705 0.699127 9.503384 -2.418112 5.975213 12.647518 1.348337 -23.873524 -17.664245 1.604935 -0.000003 -0.000000 -0.000001 -7.938254 1.609058 -6.495676 2.210585 4.583649 -51.475120 0.883828 3.096061 -31.858130 0.000002 -0.000000 -0.000001 1.254227 -0.073706 -17.945774 3.754115 5.463603 -68.965287 5.298527 9.638357 -33.747063 0.000002 0.000003 0.000007 10.058166 -1.800587 -20.644701 1.774244 4.200487 -45.782099 1.632175 4.057804 -43.809370 0.000001 -0.000001 0.000001 9.479712 -1.289798 -20.785545 0.709472 2.796446 -28.467120 0.714020 2.804757 -28.559787 0.000000 0.000002 -0.000003 10.411167 20.330859 -1.369261 3.446698 33.596587 47.887751 68.290137 116.117546 -81.856546 -10.139789 21.397191 14.283210 13.942497 -4.273682 -5.300368 7.113198 -20.767455 -2.619489 -3.463358 -24.899733 -18.660432 -0.000003 -0.000001 0.000002 0.357770 -5.832703 5.175854 0.094365 -0.933644 11.539884 0.777634 -2.578465 33.559960 -0.000001 -0.000003 -0.000006 3.764079 -12.080490 1.143754 5.714319 -4.535871 103.133527 3.160487 -4.410594 71.234973 0.000000 -0.000000 -0.000004 -12.155615 -12.623883 9.228332 6.566863 -4.248427 114.232305 3.755157 -4.569159 78.819707 -0.000000 -0.000001 -0.000003 -17.635767 -10.496842 3.325442 4.993637 -4.645027 94.147915 3.647373 -4.546605 77.463450 0.000001 0.000000 0.000000 -21.074224 11.512760 22.274367 30.730322 9.919615 -2.171724 1.521016 3.060932 -14.596094 -0.208562 0.099050 0.223844 0.000000 -0.000001 0.000000 -15.077076 -18.845291 -25.909023 36.747227 0.381335 -1.212139 -16.246966 -1.840077 14.474737 1.077870 2.171021 2.153700 -0.000000 -0.000000 0.000000 
-3.487510 85.110451 1.766055 -11.209923 -52.808881 -6.425201 4.710227 0.514542 0.189501 4.687561 1.157856 0.437581 8.059748 1.167267 0.149269 2.540734 5.576050 -0.199341 9.009533 37.520370 -6.834248 -0.000000 0.000000 -0.000000 8.659376 -28.295044 0.045850 -26.549739 9.770744 -55.478054 -93.100123 12.680852 -77.857845 -22.099079 -4.076892 -6.898471 -0.251960 7.214482 -1.292067 6.198137 12.698222 0.650406 -19.560444 -13.941813 5.254964 0.000000 0.000001 -0.000001 -6.678173 0.903458 -5.733435 -0.240144 6.355342 -45.310498 -1.246352 4.230395 -29.285112 -0.000000 0.000002 -0.000005 0.686688 0.345313 -14.700609 1.670728 6.880241 -58.547057 2.238826 9.083244 -30.880962 -0.000003 -0.000001 0.000001 8.285548 0.165688 -16.376849 0.699902 4.060556 -37.557755 0.578989 3.956862 -36.189604 0.000001 -0.000001 -0.000001 8.708639 2.661571 -14.943324 0.545650 2.496497 -25.127757 0.551949 2.510406 -25.277144 -0.000002 0.000003 0.000001 8.000560 22.378708 -0.708024 7.938839 31.055029 46.779890 67.814175 116.767999 -81.285699 -10.185995 22.501937 11.785510 13.942495 -4.273684 -5.300370 7.113202 -20.767457 -2.619490 -3.463359 -24.899736 -18.660435 -0.000003 0.000002 0.000001 0.357770 -5.832705 5.175852 0.094366 -0.933641 11.539886 0.777635 -2.578463 33.559953 -0.000001 -0.000001 -0.000002 3.764080 -12.080491 1.143749 5.714319 -4.535869 103.133521 3.160488 -4.410595 71.234973 -0.000000 -0.000001 -0.000006 -12.155613 -12.623888 9.228332 6.566862 -4.248426 114.232312 3.755156 -4.569161 78.819700 0.000000 0.000000 -0.000007 -17.635764 -10.496842 3.325443 4.993641 -4.645021 94.147915 3.647371 -4.546605 77.463443 0.000001 -0.000001 0.000000 -21.619610 12.361655 21.460830 30.939213 8.993906 -1.604423 1.399462 1.748259 -13.938820 -0.204851 0.092783 0.227196 0.000000 -0.000000 -0.000000 -15.048840 -21.863825 -28.040517 37.239233 2.273578 -0.547414 -17.408342 -1.844727 13.777374 1.080717 2.176981 2.159633 0.000000 0.000001 -0.000000 
-4.582567 84.673531 2.583010 -11.937613 -49.763266 -6.154149 3.601747 0.571800 -0.004387 4.274777 1.211006 0.709182 7.310383 1.288009 0.417348 2.541352 5.576995 -0.204188 19.552625 38.606842 -5.454806 -0.000000 0.000000 0.000000 8.652426 -31.058554 2.489051 -22.383751 7.266251 -51.492045 -94.528350 12.056117 -70.965768 -18.235536 -3.614509 -10.086828 -1.179601 4.993126 -0.247867 6.417111 12.746627 -0.028844 -15.597205 -10.033592 8.173430 0.000001 -0.000000 -0.000001 -5.335081 0.021771 -4.767817 -3.257307 7.652779 -38.510758 -3.663926 5.261785 -26.557633 -0.000001 0.000001 0.000001 -0.063234 0.704844 -11.349614 -1.136153 7.662759 -47.263885 -0.962645 8.217206 -27.987658 0.000000 0.000001 0.000003 6.083182 1.965067 -11.901589 -0.491388 3.671115 -28.847731 -0.621240 3.664615 -28.288053 -0.000004 -0.000000 0.000004 7.074646 6.690924 -8.658656 0.395312 2.180095 -21.713923 0.405939 2.208533 -22.010117 0.000001 -0.000002 -0.000002 4.832437 22.929536 1.537097 13.306849 29.657730 46.418413 66.447837 117.237807 -79.756768 -8.590719 22.277842 8.007429 13.942493 -4.273684 -5.300368 7.113203 -20.767453 -2.619489 -3.463360 -24.899733 -18.660430 -0.000003 0.000003 0.000005 0.357772 -5.832702 5.175852 0.094366 -0.933638 11.539892 0.777634 -2.578462 33.559960 -0.000001 -0.000003 -0.000001 3.764080 -12.080489 1.143754 5.714318 -4.535871 103.133527 3.160488 -4.410593 71.234973 0.000001 -0.000000 -0.000004 -12.155614 -12.623886 9.228333 6.566861 -4.248427 114.232312 3.755154 -4.569160 78.819700 0.000002 -0.000002 -0.000003 -17.635767 -10.496840 3.325442 4.993644 -4.645024 94.147915 3.647369 -4.546603 77.463450 -0.000001 0.000003 -0.000001 -21.841555 13.500209 20.816637 31.707289 7.160651 -1.452487 0.526242 -0.224717 -12.993652 -0.203514 0.090631 0.228390 -0.000000 -0.000001 0.000000 -11.713091 -23.661585 -29.456205 37.738817 1.447713 -0.332712 -20.043970 -2.745859 15.410194 1.085538 2.178974 2.169406 -0.000000 0.000001 -0.000000 
-6.788271 84.044769 4.191840 -13.762327 -45.622819 -6.274581 1.879195 0.819656 -0.235171 3.604144 1.575378 1.154670 6.114826 1.655807 0.867938 12.906415 5.662856 0.867892 23.814086 40.020015 -5.239574 -0.000000 0.000000 0.000001 7.555986 -31.029720 3.265207 -8.217071 0.548326 -49.298840 -93.768191 12.309963 -74.563311 -12.442025 -14.121607 -11.588200 -2.135631 2.723323 0.782419 6.643326 12.794587 -0.726388 -11.764752 -5.812156 10.671373 0.000001 0.000001 -0.000001 -4.035508 -0.613538 -3.942576 -6.447238 8.339703 -32.224286 -6.007340 6.010456 -23.906893 0.000003 -0.000000 0.000003 -0.748415 0.961574 -8.084724 -4.152030 7.622828 -36.778448 -3.866600 7.144359 -25.367172 0.000001 0.000001 -0.000002 3.801497 3.283084 -7.400702 -1.585167 3.043358 -20.649207 -1.714508 3.105478 -20.694466 -0.000002 0.000000 0.000004 4.713522 10.031167 -2.271604 0.267424 1.861546 -18.376040 0.278101 1.896406 -18.730885 -0.000000 -0.000000 0.000001 2.095619 19.727173 4.908511 20.936067 27.635195 46.263521 57.620111 119.813676 -69.526415 -4.837409 18.724730 3.849691 13.942493 -4.273684 -5.300369 7.113201 -20.767455 -2.619487 -3.463355 -24.899736 -18.660432 0.000003 0.000005 0.000007 0.357772 -5.832705 5.175853 0.094365 -0.933639 11.539889 0.777635 -2.578462 33.559953 0.000000 -0.000003 0.000003 3.764081 -12.080490 1.143751 5.714317 -4.535872 103.133521 3.160489 -4.410594 71.234973 0.000001 -0.000001 -0.000001 -12.155611 -12.623889 9.228332 6.566861 -4.248425 114.232305 3.755156 -4.569161 78.819700 -0.000000 -0.000002 -0.000003 -17.635762 -10.496844 3.325443 4.993641 -4.645022 94.147915 3.647373 -4.546604 77.463443 0.000003 0.000002 -0.000003 -20.583011 14.681278 20.367667 33.119454 4.660496 -1.683627 -1.469991 -2.659839 -12.222791 -0.203524 0.090582 0.228393 -0.000000 -0.000001 0.000000 -3.949795 -25.094158 -29.517663 37.374771 -0.408992 -0.398109 -23.786549 -5.739817 18.461004 1.078221 2.179167 2.154745 -0.000000 0.000001 -0.000000 
